# Blender 4.1.1
# www.blender.org
o mug_red
v 0.000000 0.335252 -0.187500
v 0.000000 0.036870 -0.187500
v -0.093139 0.036870 -0.162380
v 0.093139 0.036870 -0.162380
v -0.093139 0.335252 -0.162380
v -0.161322 0.335252 -0.093750
v 0.186278 0.036870 0.000000
v 0.161322 0.335252 -0.093750
v 0.186278 0.335252 0.000000
v 0.161322 0.036870 -0.093750
v 0.093139 0.335252 -0.162380
v 0.161322 0.036870 0.093750
v 0.161322 0.335252 0.093750
v 0.093139 0.335252 0.162380
v 0.093139 0.036870 0.162380
v -0.000000 0.036870 0.187500
v -0.000000 0.335252 0.187500
v -0.093139 0.335252 0.162380
v -0.093139 0.036870 0.162380
v -0.161322 0.036870 0.093750
v -0.161322 0.335252 0.093750
v -0.186278 0.335252 0.000000
v -0.186278 0.036870 0.000000
v -0.161322 0.036870 -0.093750
v 0.000000 0.335252 -0.127307
v 0.063239 0.036870 -0.110251
v 0.063239 0.335252 -0.110251
v -0.063239 0.036870 -0.110251
v 0.000000 0.036870 -0.127307
v 0.109532 0.036870 -0.063653
v 0.109532 0.335252 -0.063653
v 0.000000 0.350000 -0.157403
v 0.078189 0.350000 -0.136315
v 0.093139 0.335252 -0.162380
v 0.000000 0.335252 -0.187500
v -0.093139 0.335252 -0.162380
v -0.078189 0.350000 -0.136315
v 0.161322 0.335252 -0.093750
v 0.135427 0.350000 -0.078702
v 0.186278 0.335252 0.000000
v 0.135427 0.350000 0.078702
v 0.161322 0.335252 0.093750
v 0.156378 0.350000 0.000000
v 0.078189 0.350000 0.136315
v 0.093139 0.335252 0.162380
v -0.000000 0.350000 0.157403
v -0.000000 0.335252 0.187500
v -0.093139 0.335252 0.162380
v -0.078189 0.350000 0.136315
v -0.161322 0.335252 0.093750
v -0.135427 0.350000 0.078702
v -0.156378 0.350000 0.000000
v -0.186278 0.335252 0.000000
v -0.135427 0.350000 -0.078702
v -0.161322 0.335252 -0.093750
v -0.063239 0.036870 0.110251
v -0.109532 0.335252 0.063653
v -0.063239 0.335252 0.110251
v -0.000000 0.036870 0.127307
v -0.109532 0.036870 0.063653
v -0.126477 0.036870 0.000000
v -0.126477 0.335252 0.000000
v 0.109532 0.335252 0.063653
v 0.063239 0.036870 0.110251
v 0.063239 0.335252 0.110251
v 0.109532 0.036870 0.063653
v -0.000000 0.335252 0.127307
v 0.126477 0.036870 0.000000
v -0.063239 0.335252 -0.110251
v -0.109532 0.036870 -0.063653
v 0.126477 0.335252 0.000000
v -0.109532 0.335252 -0.063653
v 0.000000 0.000000 -0.148677
v 0.093139 0.036870 -0.162380
v 0.073854 0.000000 -0.128758
v -0.093139 0.036870 -0.162380
v 0.000000 0.036870 -0.187500
v 0.161322 0.036870 -0.093750
v 0.127919 0.000000 -0.074339
v 0.186278 0.036870 0.000000
v 0.147708 -0.000000 0.000000
v 0.127919 -0.000000 0.074339
v 0.161322 0.036870 0.093750
v 0.093139 0.036870 0.162380
v 0.073854 -0.000000 0.128758
v -0.000000 0.036870 0.187500
v -0.000000 -0.000000 0.148677
v -0.093139 0.036870 0.162380
v -0.073854 -0.000000 0.128758
v -0.161322 0.036870 0.093750
v -0.127919 -0.000000 0.074339
v -0.186278 0.036870 0.000000
v -0.147708 0.000000 -0.000000
v -0.161322 0.036870 -0.093750
v -0.127919 0.000000 -0.074339
v -0.073854 0.000000 -0.128758
v 0.000000 0.335252 -0.127307
v -0.078189 0.350000 -0.136315
v -0.063239 0.335252 -0.110251
v 0.078189 0.350000 -0.136315
v 0.000000 0.350000 -0.157403
v 0.063239 0.335252 -0.110251
v -0.135427 0.350000 -0.078702
v -0.109532 0.335252 -0.063653
v -0.156378 0.350000 0.000000
v -0.126477 0.335252 0.000000
v -0.109532 0.335252 0.063653
v -0.135427 0.350000 0.078702
v -0.063239 0.335252 0.110251
v -0.078189 0.350000 0.136315
v -0.000000 0.350000 0.157403
v -0.000000 0.335252 0.127307
v 0.078189 0.350000 0.136315
v 0.063239 0.335252 0.110251
v 0.135427 0.350000 0.078702
v 0.109532 0.335252 0.063653
v 0.156378 0.350000 0.000000
v 0.126477 0.335252 0.000000
v 0.109532 0.335252 -0.063653
v 0.135427 0.350000 -0.078702
v 0.274136 0.261551 0.029999
v 0.298988 0.213462 0.030013
v 0.315624 0.213383 0.000000
v 0.282631 0.275984 0.000000
v 0.227052 0.128900 0.000000
v 0.170640 0.110983 -0.030386
v 0.170640 0.122468 0.000000
v 0.227583 0.113442 -0.030807
v 0.246734 0.140048 0.000000
v 0.227840 0.079740 -0.030161
v 0.170640 0.079700 -0.030386
v 0.170640 0.110983 -0.030386
v 0.227583 0.113442 -0.030807
v 0.274136 0.094947 -0.029999
v 0.274136 0.094947 0.029999
v 0.315624 0.143115 0.000000
v 0.298988 0.143036 0.030013
v 0.282631 0.080513 0.000000
v 0.315624 0.143115 0.000000
v 0.282631 0.080513 0.000000
v 0.274136 0.094947 -0.029999
v 0.298988 0.143036 -0.030013
v 0.170640 0.110983 0.030386
v 0.227583 0.113442 0.030807
v 0.260559 0.134041 -0.030964
v 0.298988 0.143036 -0.030013
v 0.270559 0.178249 -0.030964
v 0.227840 0.079740 0.030161
v 0.170640 0.064419 0.000000
v 0.227738 0.064954 0.000000
v 0.170640 0.079700 0.030386
v 0.274136 0.094947 0.029999
v 0.170640 0.292079 0.000000
v 0.227840 0.276758 -0.030161
v 0.170640 0.276798 -0.030386
v 0.227738 0.291544 0.000000
v 0.274136 0.261551 -0.029999
v 0.170640 0.245515 0.030386
v 0.227052 0.227597 0.000000
v 0.227583 0.243056 0.030807
v 0.170640 0.234029 0.000000
v 0.170640 0.245515 -0.030386
v 0.227583 0.243056 -0.030807
v 0.246734 0.216449 0.000000
v 0.170640 0.245515 -0.030386
v 0.227840 0.276758 -0.030161
v 0.227583 0.243056 -0.030807
v 0.170640 0.276798 -0.030386
v 0.274136 0.261551 -0.029999
v 0.260559 0.222456 -0.030964
v 0.170640 0.064419 0.000000
v 0.227840 0.079740 -0.030161
v 0.227738 0.064954 0.000000
v 0.170640 0.079700 -0.030386
v 0.274136 0.094947 -0.029999
v 0.170640 0.110983 0.030386
v 0.227840 0.079740 0.030161
v 0.227583 0.113442 0.030807
v 0.170640 0.079700 0.030386
v 0.274136 0.094947 0.029999
v 0.260559 0.134041 0.030964
v 0.227840 0.276758 0.030162
v 0.170640 0.245515 0.030386
v 0.227583 0.243056 0.030807
v 0.170640 0.276798 0.030386
v 0.274136 0.261551 0.029999
v 0.298988 0.213462 -0.030013
v 0.298988 0.213462 0.030013
v 0.260559 0.222456 0.030964
v 0.270559 0.178249 0.030964
v 0.308988 0.178249 0.030013
v 0.315624 0.213383 0.000000
v 0.274136 0.261551 -0.029999
v 0.282631 0.275984 0.000000
v 0.298988 0.213462 -0.030013
v 0.308988 0.178249 0.030013
v 0.315624 0.213383 0.000000
v 0.298988 0.213462 0.030013
v 0.315624 0.143115 0.000000
v 0.325624 0.178249 0.000000
v 0.298988 0.143036 0.030013
v 0.298988 0.143036 0.030013
v 0.260559 0.134041 0.030964
v 0.270559 0.178249 0.030964
v 0.246734 0.140048 0.000000
v 0.256734 0.178249 0.000000
v 0.246734 0.216449 0.000000
v 0.270559 0.178249 -0.030964
v 0.260559 0.134041 -0.030964
v 0.308988 0.178249 -0.030013
v 0.315624 0.213383 0.000000
v 0.308988 0.178249 -0.030013
v 0.298988 0.213462 -0.030013
v 0.325624 0.178249 0.000000
v 0.315624 0.143115 0.000000
v 0.274136 0.261551 0.029999
v 0.227738 0.291544 0.000000
v 0.227840 0.276758 0.030162
v 0.282631 0.275984 0.000000
v 0.170640 0.292079 0.000000
v 0.170640 0.276798 0.030386
v 0.260559 0.222456 0.030964
v 0.260559 0.222456 -0.030964
v 0.282631 0.080513 0.000000
v 0.260559 0.134041 0.030964
v 0.260559 0.134041 -0.030964
v 0.282631 0.080513 0.000000
v 0.282631 0.275984 0.000000
v -0.000000 0.000000 -0.000000
v -0.127919 -0.000000 0.074339
v -0.147708 0.000000 -0.000000
v -0.127919 0.000000 -0.074339
v -0.073854 0.000000 -0.128758
v 0.000000 0.000000 -0.148677
v -0.073854 -0.000000 0.128758
v -0.000000 -0.000000 0.148677
v 0.073854 -0.000000 0.128758
v 0.127919 -0.000000 0.074339
v 0.147708 -0.000000 0.000000
v 0.127919 0.000000 -0.074339
v 0.073854 0.000000 -0.128758
v 0.000000 0.036870 0.000000
v 0.063239 0.036870 -0.110251
v 0.000000 0.036870 -0.127307
v 0.109532 0.036870 -0.063653
v 0.126477 0.036870 0.000000
v 0.109532 0.036870 0.063653
v 0.063239 0.036870 0.110251
v -0.000000 0.036870 0.127307
v -0.063239 0.036870 0.110251
v -0.109532 0.036870 0.063653
v -0.126477 0.036870 0.000000
v -0.109532 0.036870 -0.063653
v -0.063239 0.036870 -0.110251
v 0.298988 0.143036 -0.030013
v 0.260559 0.222456 -0.030964
v 0.260559 0.222456 0.030964
vn -0.0000 -0.0000 -1.0000
vn -0.0000 -0.3726 -0.9280
vn -0.4658 -0.3723 -0.8027
vn 0.4658 -0.3723 -0.8027
vn -0.5021 -0.0000 -0.8648
vn -0.8672 -0.0000 -0.4979
vn 0.9284 -0.3715 -0.0000
vn 0.8672 -0.0000 -0.4979
vn 1.0000 -0.0000 -0.0000
vn 0.8050 -0.3718 -0.4624
vn 0.5021 -0.0000 -0.8648
vn 0.8050 -0.3718 0.4624
vn 0.8672 -0.0000 0.4979
vn 0.5021 -0.0000 0.8648
vn 0.4659 -0.3723 0.8027
vn -0.0000 -0.3726 0.9280
vn -0.0000 -0.0000 1.0000
vn -0.5021 -0.0000 0.8648
vn -0.4659 -0.3723 0.8027
vn -0.8050 -0.3718 0.4624
vn -0.8672 -0.0000 0.4979
vn -1.0000 -0.0000 -0.0000
vn -0.9284 -0.3715 -0.0000
vn -0.8050 -0.3718 -0.4624
vn -0.0000 0.8980 -0.4400
vn 0.2216 0.8977 -0.3808
vn 0.2210 0.8977 -0.3812
vn -0.2210 0.8977 -0.3812
vn -0.2216 0.8977 -0.3808
vn 0.3830 0.8971 -0.2202
vn 0.3833 0.8971 -0.2196
vn 0.4424 0.8968 -0.0000
vn 0.3833 0.8971 0.2196
vn 0.3830 0.8971 0.2202
vn 0.2216 0.8977 0.3808
vn 0.2210 0.8977 0.3812
vn -0.0000 0.8980 0.4400
vn -0.2210 0.8977 0.3812
vn -0.2216 0.8977 0.3808
vn -0.3830 0.8971 0.2202
vn -0.3833 0.8971 0.2196
vn -0.4424 0.8968 -0.0000
vn -0.3833 0.8971 -0.2196
vn -0.3830 0.8971 -0.2202
vn -0.0000 -0.9067 -0.4218
vn 0.4659 -0.3724 -0.8027
vn 0.2122 -0.9066 -0.3648
vn -0.4658 -0.3724 -0.8027
vn -0.0000 -0.3727 -0.9280
vn 0.8050 -0.3718 -0.4623
vn 0.3667 -0.9063 -0.2101
vn 0.4229 -0.9062 -0.0000
vn 0.3667 -0.9063 0.2101
vn 0.8050 -0.3718 0.4623
vn 0.4658 -0.3724 0.8027
vn 0.2122 -0.9066 0.3648
vn -0.0000 -0.3727 0.9280
vn -0.0000 -0.9067 0.4218
vn -0.4659 -0.3724 0.8027
vn -0.2122 -0.9066 0.3648
vn -0.8050 -0.3718 0.4623
vn -0.3667 -0.9063 0.2101
vn -0.4229 -0.9062 -0.0000
vn -0.8050 -0.3718 -0.4623
vn -0.3667 -0.9063 -0.2101
vn -0.2122 -0.9066 -0.3648
vn 0.5770 0.6670 0.4713
vn 0.8244 0.3406 0.4521
vn 0.8302 0.3202 0.4563
vn 0.5501 0.6888 0.4721
vn -0.3241 0.9460 -0.0000
vn -0.0731 0.9125 -0.4024
vn -0.0799 0.9968 -0.0000
vn -0.2659 0.8754 -0.4036
vn -0.7903 0.6127 -0.0000
vn 0.0033 -0.0146 -0.9999
vn -0.0015 -0.0099 -0.9999
vn 0.0048 -0.0159 -0.9999
vn 0.0157 -0.0186 -0.9997
vn 0.5770 -0.6670 0.4713
vn 0.8302 -0.3202 0.4563
vn 0.8244 -0.3406 0.4521
vn 0.5501 -0.6888 0.4722
vn 0.8302 -0.3202 -0.4563
vn 0.5501 -0.6888 -0.4721
vn 0.5770 -0.6670 -0.4713
vn 0.8244 -0.3406 -0.4521
vn -0.0731 0.9125 0.4024
vn -0.2659 0.8754 0.4036
vn 0.0209 -0.0146 -0.9997
vn 0.0263 -0.0089 -0.9996
vn 0.0254 -0.0000 -0.9997
vn 0.1393 -0.8812 0.4518
vn 0.0054 -0.8956 0.4447
vn 0.1284 -0.8830 0.4515
vn 0.0054 -0.8956 0.4448
vn 0.5769 -0.6671 0.4713
vn 0.0054 0.8956 -0.4447
vn 0.1393 0.8812 -0.4518
vn 0.1284 0.8830 -0.4515
vn 0.5769 0.6671 -0.4713
vn -0.0731 -0.9125 0.4024
vn -0.3241 -0.9460 -0.0000
vn -0.2659 -0.8754 0.4036
vn -0.0799 -0.9968 -0.0000
vn -0.0731 -0.9125 -0.4024
vn -0.2659 -0.8754 -0.4036
vn -0.7903 -0.6127 -0.0000
vn -0.0015 0.0099 -0.9999
vn 0.0033 0.0146 -0.9999
vn 0.0048 0.0159 -0.9999
vn 0.0157 0.0186 -0.9997
vn 0.0209 0.0143 -0.9997
vn 0.0054 -0.8956 -0.4447
vn 0.1393 -0.8812 -0.4518
vn 0.1284 -0.8830 -0.4515
vn 0.5769 -0.6671 -0.4713
vn -0.0015 -0.0099 0.9999
vn 0.0033 -0.0146 0.9999
vn 0.0048 -0.0159 0.9999
vn 0.0157 -0.0186 0.9997
vn 0.0209 -0.0143 0.9997
vn 0.0033 0.0146 0.9999
vn -0.0015 0.0099 0.9999
vn 0.0048 0.0159 0.9999
vn 0.0157 0.0186 0.9997
vn 0.0263 0.0089 -0.9996
vn 0.0263 0.0089 0.9996
vn 0.0209 0.0143 0.9997
vn 0.0254 -0.0000 0.9997
vn 0.0255 -0.0000 0.9997
vn 0.8302 0.3202 -0.4563
vn 0.5770 0.6670 -0.4713
vn 0.5501 0.6888 -0.4722
vn 0.8244 0.3406 -0.4521
vn 0.8748 -0.0000 0.4846
vn 0.8302 0.3201 0.4563
vn 0.8302 -0.3201 0.4563
vn 0.8749 -0.0000 0.4844
vn 0.0263 -0.0089 0.9996
vn -0.7405 0.5175 0.4288
vn -0.9050 -0.0000 0.4254
vn -0.9050 -0.0000 -0.4254
vn -0.7405 0.5175 -0.4288
vn 0.0255 -0.0000 -0.9997
vn 0.8302 0.3201 -0.4563
vn 0.8748 -0.0000 -0.4846
vn 0.8749 -0.0000 -0.4844
vn 0.8302 -0.3201 -0.4563
vn 0.5769 0.6671 0.4713
vn 0.1284 0.8830 0.4515
vn 0.1393 0.8812 0.4518
vn 0.0054 0.8956 0.4447
vn 0.0054 0.8956 0.4448
vn -0.7405 -0.5176 0.4287
vn -0.7405 -0.5176 -0.4288
vn -0.7405 0.5176 0.4288
vn -0.7405 0.5176 -0.4287
vn -0.0000 -1.0000 -0.0000
vn -0.3666 -0.9063 0.2101
vn -0.4228 -0.9062 -0.0000
vn -0.3666 -0.9063 -0.2101
vn 0.3666 -0.9063 0.2101
vn 0.4228 -0.9062 -0.0000
vn 0.3666 -0.9063 -0.2101
vn -0.0000 1.0000 -0.0000
vn -0.7405 -0.5175 -0.4288
vn -0.7405 -0.5175 0.4288
vt 0.314804 0.437872
vt 0.314804 0.424891
vt 0.310168 0.424891
vt 0.319440 0.424891
vt 0.310168 0.437872
vt 0.306775 0.437872
vt 0.324076 0.424891
vt 0.322834 0.437872
vt 0.324076 0.437872
vt 0.322834 0.424891
vt 0.319440 0.437872
vt 0.306775 0.424891
vt 0.305532 0.437872
vt 0.305532 0.424891
vt 0.314804 0.406622
vt 0.317952 0.393641
vt 0.317952 0.406622
vt 0.311657 0.393641
vt 0.314804 0.393641
vt 0.320256 0.393641
vt 0.320256 0.406622
vt 0.314804 0.469864
vt 0.318696 0.469864
vt 0.319440 0.469122
vt 0.314804 0.469122
vt 0.310168 0.469122
vt 0.310912 0.469864
vt 0.322834 0.469122
vt 0.321545 0.469864
vt 0.324076 0.469122
vt 0.322588 0.469864
vt 0.306775 0.469122
vt 0.308063 0.469864
vt 0.307021 0.469864
vt 0.305532 0.469122
vt 0.309352 0.406622
vt 0.311657 0.406622
vt 0.309352 0.393641
vt 0.308509 0.393641
vt 0.308509 0.406622
vt 0.321100 0.393641
vt 0.321100 0.406622
vt 0.314804 0.407412
vt 0.319440 0.409266
vt 0.318480 0.407412
vt 0.310168 0.409266
vt 0.314804 0.409266
vt 0.322834 0.409266
vt 0.321172 0.407412
vt 0.324076 0.409266
vt 0.322157 0.407412
vt 0.311128 0.407412
vt 0.306775 0.409266
vt 0.308437 0.407412
vt 0.305532 0.409266
vt 0.307452 0.407412
vt 0.314804 0.453497
vt 0.310912 0.454239
vt 0.311657 0.453497
vt 0.318696 0.454239
vt 0.314804 0.454239
vt 0.317952 0.453497
vt 0.308063 0.454239
vt 0.309352 0.453497
vt 0.307021 0.454239
vt 0.308509 0.453497
vt 0.321545 0.454239
vt 0.320256 0.453497
vt 0.322588 0.454239
vt 0.321100 0.453497
vt 0.328411 0.450861
vt 0.329614 0.441590
vt 0.330420 0.441589
vt 0.328822 0.451124
vt 0.326130 0.460825
vt 0.323398 0.459948
vt 0.323398 0.460510
vt 0.326156 0.460068
vt 0.327084 0.461370
vt 0.326168 0.427169
vt 0.323398 0.427167
vt 0.323398 0.428698
vt 0.326156 0.428818
vt 0.328411 0.420416
vt 0.328411 0.412177
vt 0.330420 0.420371
vt 0.329614 0.420370
vt 0.328822 0.411804
vt 0.327753 0.429826
vt 0.329614 0.427404
vt 0.328237 0.431568
vt 0.326168 0.395919
vt 0.323398 0.395169
vt 0.326164 0.395195
vt 0.323398 0.395917
vt 0.328411 0.403938
vt 0.323398 0.467832
vt 0.326168 0.467082
vt 0.323398 0.467084
vt 0.326164 0.467806
vt 0.328411 0.456683
vt 0.323398 0.403053
vt 0.326130 0.402176
vt 0.326156 0.402933
vt 0.323398 0.402491
vt 0.327084 0.401631
vt 0.323398 0.434303
vt 0.326168 0.435832
vt 0.326156 0.434183
vt 0.323398 0.435834
vt 0.328411 0.445038
vt 0.327753 0.433175
vt 0.329614 0.436118
vt 0.328237 0.431568
vt 0.329728 0.431761
vt 0.330420 0.436116
vt 0.330420 0.427406
vt 0.330534 0.431761
vt 0.327753 0.414201
vt 0.327833 0.415876
vt 0.327084 0.414495
vt 0.327164 0.415876
vt 0.327084 0.417256
vt 0.327833 0.415876
vt 0.329728 0.431761
vt 0.328822 0.456946
vt 0.327753 0.401925
vt 0.328822 0.403565
vt 0.327753 0.461076
vt 0.314804 0.391787
vt 0.308437 0.391787
vt 0.307452 0.391787
vt 0.311128 0.391787
vt 0.318480 0.391787
vt 0.321172 0.391787
vt 0.322157 0.391787
vt 0.317952 0.424891
vt 0.320256 0.424891
vt 0.321100 0.424891
vt 0.311657 0.424891
vt 0.309352 0.424891
vt 0.308509 0.424891
vt 0.327753 0.417550
s 1
f 1/1/1 2/2/2 3/3/3
f 1/1/1 4/4/4 2/2/2
f 3/3/3 5/5/5 1/1/1
f 3/3/3 6/6/6 5/5/5
f 7/7/7 8/8/8 9/9/9
f 8/8/8 7/7/7 10/10/10
f 8/8/8 4/4/4 11/11/11
f 8/8/8 10/10/10 4/4/4
f 9/9/9 12/10/12 7/7/7
f 12/10/12 9/9/9 13/8/13
f 14/11/14 15/4/15 12/10/12
f 14/11/14 12/10/12 13/8/13
f 14/11/14 16/2/16 15/4/15
f 16/2/16 14/11/14 17/1/17
f 16/2/16 18/5/18 19/3/19
f 18/5/18 16/2/16 17/1/17
f 18/5/18 20/12/20 19/3/19
f 20/12/20 18/5/18 21/6/21
f 20/12/20 22/13/22 23/14/23
f 22/13/22 20/12/20 21/6/21
f 23/14/23 6/6/6 24/12/24
f 6/6/6 23/14/23 22/13/22
f 6/6/6 3/3/3 24/12/24
f 25/15/17 26/16/18 27/17/18
f 25/15/17 28/18/14 29/19/17
f 26/16/18 25/15/17 29/19/17
f 27/17/18 30/20/21 31/21/21
f 4/4/4 1/1/1 11/11/11
f 32/22/25 33/23/26 34/24/27
f 32/22/25 34/24/27 35/25/25
f 32/22/25 36/26/28 37/27/29
f 38/28/30 34/24/27 33/23/26
f 38/28/30 33/23/26 39/29/31
f 40/30/32 41/29/33 42/28/34
f 40/30/32 39/29/31 43/31/32
f 40/30/32 38/28/30 39/29/31
f 41/29/33 40/30/32 43/31/32
f 42/28/34 44/23/35 45/24/36
f 44/23/35 42/28/34 41/29/33
f 45/24/36 46/22/37 47/25/37
f 46/22/37 45/24/36 44/23/35
f 48/26/38 47/25/37 46/22/37
f 48/26/38 46/22/37 49/27/39
f 49/27/39 50/32/40 48/26/38
f 50/32/40 49/27/39 51/33/41
f 51/33/41 52/34/42 53/35/42
f 51/33/41 53/35/42 50/32/40
f 53/35/42 54/33/43 55/32/44
f 54/33/43 53/35/42 52/34/42
f 55/32/44 37/27/29 36/26/28
f 37/27/29 55/32/44 54/33/43
f 36/26/28 32/22/25 35/25/25
f 56/18/11 57/36/8 58/37/11
f 56/18/11 58/37/11 59/19/1
f 57/36/8 56/18/11 60/38/8
f 57/36/8 61/39/9 62/40/9
f 63/21/6 64/16/5 65/17/5
f 64/16/5 63/21/6 66/20/6
f 65/17/5 59/19/1 67/15/1
f 66/20/6 63/21/6 68/41/22
f 69/37/14 28/18/14 25/15/17
f 69/37/14 70/38/13 28/18/14
f 30/20/21 27/17/18 26/16/18
f 31/21/21 30/20/21 71/42/22
f 61/39/9 57/36/8 60/38/8
f 62/40/9 70/38/13 72/36/13
f 59/19/1 65/17/5 64/16/5
f 59/19/1 58/37/11 67/15/1
f 71/42/22 68/41/22 63/21/6
f 68/41/22 71/42/22 30/20/21
f 70/38/13 62/40/9 61/39/9
f 70/38/13 69/37/14 72/36/13
f 73/43/45 74/44/46 75/45/47
f 73/43/45 76/46/48 77/47/49
f 74/44/46 73/43/45 77/47/49
f 75/45/47 78/48/50 79/49/51
f 78/48/50 75/45/47 74/44/46
f 79/49/51 80/50/7 81/51/52
f 80/50/7 79/49/51 78/48/50
f 80/50/7 82/49/53 81/51/52
f 82/49/53 80/50/7 83/48/54
f 83/48/54 84/44/55 85/45/56
f 85/45/56 82/49/53 83/48/54
f 84/44/55 86/47/57 87/43/58
f 84/44/55 87/43/58 85/45/56
f 87/43/58 88/46/59 89/52/60
f 88/46/59 87/43/58 86/47/57
f 89/52/60 90/53/61 91/54/62
f 90/53/61 89/52/60 88/46/59
f 91/54/62 92/55/23 93/56/63
f 92/55/23 94/53/64 95/54/65
f 92/55/23 95/54/65 93/56/63
f 92/55/23 91/54/62 90/53/61
f 94/53/64 96/52/66 95/54/65
f 96/52/66 94/53/64 76/46/48
f 76/46/48 73/43/45 96/52/66
f 97/57/37 98/58/36 99/59/35
f 97/57/37 100/60/38 101/61/37
f 97/57/37 102/62/39 100/60/38
f 98/58/36 97/57/37 101/61/37
f 99/59/35 103/63/34 104/64/33
f 103/63/34 99/59/35 98/58/36
f 104/64/33 105/65/32 106/66/32
f 105/65/32 104/64/33 103/63/34
f 107/64/31 106/66/32 105/65/32
f 107/64/31 105/65/32 108/63/30
f 108/63/30 109/59/26 107/64/31
f 109/59/26 108/63/30 110/58/27
f 110/58/27 111/61/25 112/57/25
f 110/58/27 112/57/25 109/59/26
f 112/57/25 113/60/28 114/62/29
f 113/60/28 112/57/25 111/61/25
f 114/62/29 115/67/44 116/68/43
f 115/67/44 114/62/29 113/60/28
f 116/68/43 117/69/42 118/70/42
f 117/69/42 119/68/41 118/70/42
f 117/69/42 120/67/40 119/68/41
f 117/69/42 116/68/43 115/67/44
f 120/67/40 100/60/38 102/62/39
f 120/67/40 102/62/39 119/68/41
f 121/71/67 122/72/68 123/73/69
f 123/73/69 124/74/70 121/71/67
f 125/75/71 126/76/72 127/77/73
f 126/76/72 125/75/71 128/78/74
f 128/78/74 125/75/71 129/79/75
f 130/80/76 131/81/77 132/82/77
f 130/80/76 132/82/77 133/83/78
f 133/83/78 134/84/79 130/80/76
f 135/85/80 136/86/81 137/87/82
f 136/86/81 135/85/80 138/88/83
f 139/86/84 140/88/85 141/85/86
f 139/86/84 141/85/86 142/87/87
f 143/76/88 144/78/89 125/75/71
f 143/76/88 125/75/71 127/77/73
f 144/78/89 129/79/75 125/75/71
f 145/89/90 146/90/91 134/84/79
f 146/90/91 145/89/90 147/91/92
f 134/84/79 133/83/78 145/89/90
f 148/92/93 149/93/94 150/94/95
f 148/92/93 151/95/96 149/93/94
f 150/94/95 152/96/97 148/92/93
f 153/97/98 154/98/99 155/99/98
f 153/97/98 156/100/100 154/98/99
f 156/100/100 157/101/101 154/98/99
f 158/102/102 159/103/103 160/104/104
f 159/103/103 158/102/102 161/105/105
f 159/103/103 161/105/105 162/102/106
f 159/103/103 162/102/106 163/104/107
f 160/104/104 159/103/103 164/106/108
f 163/104/107 164/106/108 159/103/103
f 165/107/109 166/108/110 167/109/111
f 166/108/110 165/107/109 168/110/109
f 166/108/110 169/111/112 167/109/111
f 167/109/111 169/111/112 170/112/113
f 171/93/114 172/92/115 173/94/116
f 172/92/115 171/93/114 174/95/114
f 173/94/116 172/92/115 175/96/117
f 176/82/118 177/80/119 178/83/120
f 177/80/119 176/82/118 179/81/118
f 178/83/120 180/84/121 181/89/122
f 182/108/123 183/107/124 184/109/125
f 182/108/123 185/110/124 183/107/124
f 184/109/125 186/111/126 182/108/123
f 170/112/113 169/111/112 187/113/127
f 187/113/127 147/91/92 170/112/113
f 188/113/128 186/111/126 189/112/129
f 188/113/128 190/114/130 191/115/131
f 186/111/126 184/109/125 189/112/129
f 189/112/129 190/114/130 188/113/128
f 192/73/132 193/71/133 194/74/134
f 193/71/133 192/73/132 195/72/135
f 196/115/136 197/116/137 198/113/68
f 196/115/136 199/117/138 200/118/139
f 199/117/138 196/115/136 201/90/82
f 190/114/130 202/90/140 191/115/131
f 202/90/140 190/114/130 181/89/122
f 203/119/141 204/120/142 205/121/75
f 204/120/142 206/122/22 205/121/75
f 204/120/142 207/123/108 206/122/22
f 205/121/75 208/124/143 209/119/144
f 206/122/22 207/123/108 208/124/143
f 208/124/143 205/121/75 206/122/22
f 147/91/92 187/113/127 210/125/145
f 147/91/92 210/125/145 146/90/91
f 211/116/146 212/125/147 213/113/135
f 212/125/147 211/116/146 214/118/148
f 214/118/148 215/117/149 212/125/147
f 180/84/121 178/83/120 177/80/119
f 180/84/121 202/90/140 181/89/122
f 216/101/150 217/100/151 218/98/152
f 217/100/151 216/101/150 219/126/70
f 218/98/152 220/97/153 221/99/154
f 222/127/155 160/104/104 164/106/108
f 164/106/108 163/104/107 223/127/156
f 152/96/97 150/94/95 224/128/83
f 129/79/75 144/78/89 225/129/157
f 129/79/75 226/129/158 128/78/74
f 227/128/85 173/94/116 175/96/117
f 157/101/101 156/100/100 228/126/134
f 220/97/153 218/98/152 217/100/151
f 229/130/159 230/131/160 231/132/161
f 229/130/159 231/132/161 232/131/162
f 229/130/159 232/131/162 233/133/66
f 229/130/159 233/133/66 234/130/45
f 229/130/159 235/133/60 230/131/160
f 229/130/159 236/130/58 235/133/60
f 229/130/159 237/134/56 236/130/58
f 229/130/159 238/135/163 237/134/56
f 229/130/159 239/136/164 238/135/163
f 229/130/159 240/135/165 239/136/164
f 229/130/159 241/134/47 240/135/165
f 229/130/159 234/130/45 241/134/47
s 0
f 242/2/166 243/137/166 244/2/166
f 242/2/166 245/138/166 243/137/166
f 242/2/166 246/139/166 245/138/166
f 242/2/166 247/138/166 246/139/166
f 242/2/166 248/137/166 247/138/166
f 242/2/166 249/2/166 248/137/166
f 242/2/166 250/140/166 249/2/166
f 242/2/166 251/141/166 250/140/166
f 242/2/166 252/142/166 251/141/166
f 242/2/166 253/141/166 252/142/166
f 242/2/166 254/140/166 253/141/166
f 242/2/166 244/2/166 254/140/166
s 1
f 215/117/149 255/90/87 212/125/147
f 207/123/108 256/143/167 208/124/143
f 207/123/108 204/120/142 257/143/168
f 197/116/137 196/115/136 200/118/139
